<svg width="19" height="19" viewBox="0 0 19 19" fill="none" xmlns="http://www.w3.org/2000/svg">
<path d="M16.2365 5.11217C17.1132 6.35594 17.6274 7.86855 17.6274 9.5C17.6274 11.1314 17.1132 12.6441 16.2365 13.8878M9.46268 2.22243L5.9535 5.69506C5.76178 5.88478 5.66592 5.97964 5.55405 6.04748C5.45487 6.10762 5.34674 6.15195 5.23364 6.17882C5.10606 6.20913 4.9705 6.20913 4.69937 6.20913H2.77361C2.15279 6.20913 1.84238 6.20913 1.60525 6.32869C1.39668 6.43386 1.2271 6.60167 1.12082 6.80808C1 7.04273 1 7.3499 1 7.96426V11.0357C1 11.6501 1 11.9573 1.12082 12.1919C1.2271 12.3983 1.39668 12.5661 1.60525 12.6713C1.84238 12.7909 2.15279 12.7909 2.77361 12.7909H4.69937C4.9705 12.7909 5.10606 12.7909 5.23364 12.8212C5.34674 12.8481 5.45487 12.8924 5.55405 12.9525C5.66592 13.0204 5.76178 13.1152 5.9535 13.3049L9.46268 16.7776C9.93753 17.2475 10.175 17.4824 10.3788 17.4983C10.5557 17.5121 10.7285 17.4412 10.8437 17.3077C10.9765 17.1539 10.9765 16.8216 10.9765 16.157V2.84297C10.9765 2.17841 10.9765 1.84614 10.8437 1.69227C10.7285 1.55877 10.5557 1.48792 10.3788 1.50169C10.175 1.51757 9.93753 1.75252 9.46268 2.22243Z" stroke="#D3D2D0" stroke-width="1.5" stroke-linecap="round" stroke-linejoin="round"/>
</svg>
